%TF.GenerationSoftware,KiCad,Pcbnew,10.0.1*%
%TF.CreationDate,2026-05-18T12:00:34+05:30*%
%TF.ProjectId,chandra_queenofnight,6368616e-6472-4615-9f71-7565656e6f66,rev?*%
%TF.SameCoordinates,Original*%
%TF.FileFunction,Other,User*%
%FSLAX46Y46*%
G04 Gerber Fmt 4.6, Leading zero omitted, Abs format (unit mm)*
G04 Created by KiCad (PCBNEW 10.0.1) date 2026-05-18 12:00:34*
%MOMM*%
%LPD*%
G01*
G04 APERTURE LIST*
%ADD10C,0.050000*%
%ADD11C,0.100000*%
G04 APERTURE END LIST*
%TO.C,U9*%
D10*
X231621119Y-73609499D02*
X232621119Y-73609499D01*
X231621119Y-76609499D02*
X231621119Y-73609499D01*
X232621119Y-73409499D02*
X234721119Y-73409499D01*
X232621119Y-73609499D02*
X232621119Y-73409499D01*
X232621119Y-76609499D02*
X231621119Y-76609499D01*
X232621119Y-76809499D02*
X232621119Y-76609499D01*
X234721119Y-73409499D02*
X234721119Y-73609499D01*
X234721119Y-73609499D02*
X235721119Y-73609499D01*
X234721119Y-74719499D02*
X234721119Y-75499499D01*
X234721119Y-75499499D02*
X235721119Y-75499499D01*
X234721119Y-76609499D02*
X234721119Y-76809499D01*
X234721119Y-76809499D02*
X232621119Y-76809499D01*
X235721119Y-73609499D02*
X235721119Y-74719499D01*
X235721119Y-74719499D02*
X234721119Y-74719499D01*
X235721119Y-75499499D02*
X235721119Y-76609499D01*
X235721119Y-76609499D02*
X234721119Y-76609499D01*
%TO.C,R_led1*%
X198200000Y-94000000D02*
X213000000Y-94000000D01*
X213000000Y-97700000D01*
X198200000Y-97700000D01*
X198200000Y-94000000D01*
%TO.C,D4*%
X136501381Y-125868001D02*
X152501381Y-125868001D01*
X152501381Y-135908001D01*
X136501381Y-135908001D01*
X136501381Y-125868001D01*
%TO.C,R_startUp3*%
X150331381Y-138038001D02*
X172751381Y-138038001D01*
X172751381Y-141738001D01*
X150331381Y-141738001D01*
X150331381Y-138038001D01*
%TO.C,X2*%
X228408619Y-42759499D02*
X237268619Y-42759499D01*
X237268619Y-52259499D01*
X228408619Y-52259499D01*
X228408619Y-42759499D01*
%TO.C,D_fastSwitchig_out1*%
X211540000Y-118950000D02*
X224600000Y-118950000D01*
X224600000Y-123050000D01*
X211540000Y-123050000D01*
X211540000Y-118950000D01*
%TO.C,R_comp1*%
X137151381Y-120078001D02*
X154491381Y-120078001D01*
X154491381Y-123078001D01*
X137151381Y-123078001D01*
X137151381Y-120078001D01*
%TO.C,C_T1*%
X143901381Y-90788001D02*
X151001381Y-90788001D01*
X151001381Y-93788001D01*
X143901381Y-93788001D01*
X143901381Y-90788001D01*
%TO.C,J9*%
X150680000Y-44210000D02*
X150680000Y-54510000D01*
X150680000Y-54510000D02*
X174610000Y-54510000D01*
X174610000Y-44210000D02*
X150680000Y-44210000D01*
X174610000Y-54510000D02*
X174610000Y-44210000D01*
%TO.C,R_pullDown1*%
X162351381Y-110288001D02*
X167351381Y-110288001D01*
X167351381Y-121858001D01*
X162351381Y-121858001D01*
X162351381Y-110288001D01*
%TO.C,D3*%
X164180000Y-66190000D02*
X164180000Y-56840000D01*
X164180000Y-66190000D02*
X174490000Y-66190000D01*
X174490000Y-56840000D02*
X164180000Y-56840000D01*
X174490000Y-56840000D02*
X174490000Y-66190000D01*
%TO.C,U4*%
X203510000Y-56750000D02*
X203750000Y-56750000D01*
X203510000Y-61150000D02*
X203510000Y-56750000D01*
X203750000Y-55250000D02*
X208670000Y-55250000D01*
X203750000Y-56750000D02*
X203750000Y-55250000D01*
X203750000Y-61150000D02*
X203510000Y-61150000D01*
X203750000Y-62650000D02*
X203750000Y-61150000D01*
X208670000Y-55250000D02*
X208670000Y-56750000D01*
X208670000Y-56750000D02*
X208910000Y-56750000D01*
X208670000Y-61150000D02*
X208670000Y-62650000D01*
X208670000Y-62650000D02*
X203750000Y-62650000D01*
X208910000Y-56750000D02*
X208910000Y-61150000D01*
X208910000Y-61150000D02*
X208670000Y-61150000D01*
%TO.C,D6*%
X202750000Y-66050000D02*
X215610000Y-66050000D01*
X215610000Y-69250000D01*
X202750000Y-69250000D01*
X202750000Y-66050000D01*
%TO.C,C_X1*%
X156190000Y-57640000D02*
X160690000Y-57640000D01*
X160690000Y-68140000D01*
X156190000Y-68140000D01*
X156190000Y-57640000D01*
%TO.C,U11*%
X200600000Y-102840000D02*
X202100000Y-102840000D01*
X200600000Y-107760000D02*
X200600000Y-102840000D01*
X202100000Y-102600000D02*
X206500000Y-102600000D01*
X202100000Y-102840000D02*
X202100000Y-102600000D01*
X202100000Y-107760000D02*
X200600000Y-107760000D01*
X202100000Y-108000000D02*
X202100000Y-107760000D01*
X206500000Y-102600000D02*
X206500000Y-102840000D01*
X206500000Y-102840000D02*
X208000000Y-102840000D01*
X206500000Y-107760000D02*
X206500000Y-108000000D01*
X206500000Y-108000000D02*
X202100000Y-108000000D01*
X208000000Y-102840000D02*
X208000000Y-107760000D01*
X208000000Y-107760000D02*
X206500000Y-107760000D01*
%TO.C,J1*%
X292191381Y-185653001D02*
X307591381Y-185653001D01*
X292191381Y-191903001D02*
X292191381Y-185653001D01*
X307591381Y-185653001D02*
X307591381Y-191903001D01*
X307591381Y-191903001D02*
X292191381Y-191903001D01*
%TO.C,R_dac1_pup_scl1*%
X265241381Y-165848001D02*
X268241381Y-165848001D01*
X268241381Y-175568001D01*
X265241381Y-175568001D01*
X265241381Y-165848001D01*
%TO.C,J3*%
X326541381Y-131803001D02*
X341941381Y-131803001D01*
X326541381Y-138053001D02*
X326541381Y-131803001D01*
X341941381Y-131803001D02*
X341941381Y-138053001D01*
X341941381Y-138053001D02*
X326541381Y-138053001D01*
%TO.C,U10*%
X186180000Y-99680000D02*
X195910000Y-99680000D01*
X195910000Y-105270000D01*
X186180000Y-105270000D01*
X186180000Y-99680000D01*
%TO.C,C_in1*%
X224933619Y-68959499D02*
X227933619Y-68959499D01*
X227933619Y-79459499D01*
X224933619Y-79459499D01*
X224933619Y-68959499D01*
%TO.C,J5*%
X250941381Y-129428001D02*
X250941381Y-135678001D01*
X250941381Y-135678001D02*
X258841381Y-135678001D01*
X258841381Y-129428001D02*
X250941381Y-129428001D01*
X258841381Y-135678001D02*
X258841381Y-129428001D01*
%TO.C,R4*%
X265891381Y-149308001D02*
X268891381Y-149308001D01*
X268891381Y-159028001D01*
X265891381Y-159028001D01*
X265891381Y-149308001D01*
%TO.C,J7*%
X314276381Y-43363001D02*
X314276381Y-50893001D01*
X314276381Y-50893001D02*
X321806381Y-50893001D01*
X321806381Y-43363001D02*
X314276381Y-43363001D01*
X321806381Y-50893001D02*
X321806381Y-43363001D01*
%TO.C,X5*%
X272241381Y-182028001D02*
X281101381Y-182028001D01*
X281101381Y-191528001D01*
X272241381Y-191528001D01*
X272241381Y-182028001D01*
%TO.C,IC1*%
D11*
X245471381Y-56288001D02*
X287471381Y-56288001D01*
X245471381Y-113288001D02*
X245471381Y-56288001D01*
X287471381Y-56288001D02*
X287471381Y-113288001D01*
X287471381Y-113288001D02*
X245471381Y-113288001D01*
%TO.C,U13*%
D10*
X301611381Y-122258001D02*
X301611381Y-137998001D01*
X301611381Y-137998001D02*
X317351381Y-137998001D01*
X317351381Y-122258001D02*
X301611381Y-122258001D01*
X317351381Y-137998001D02*
X317351381Y-122258001D01*
%TO.C,RV1*%
X145940000Y-57540000D02*
X145940000Y-73540000D01*
X151440000Y-57540000D02*
X145940000Y-57540000D01*
X151440000Y-57540000D02*
X151440000Y-73540000D01*
X151440000Y-73540000D02*
X145940000Y-73540000D01*
%TO.C,R_down1*%
X211950000Y-100050000D02*
X214950000Y-100050000D01*
X214950000Y-112310000D01*
X211950000Y-112310000D01*
X211950000Y-100050000D01*
%TO.C,R6*%
X280271381Y-170528001D02*
X289991381Y-170528001D01*
X289991381Y-173528001D01*
X280271381Y-173528001D01*
X280271381Y-170528001D01*
%TO.C,R5*%
X299691381Y-171068001D02*
X302691381Y-171068001D01*
X302691381Y-180788001D01*
X299691381Y-180788001D01*
X299691381Y-171068001D01*
%TO.C,U12*%
X284821381Y-122258001D02*
X284821381Y-137998001D01*
X284821381Y-137998001D02*
X300561381Y-137998001D01*
X300561381Y-122258001D02*
X284821381Y-122258001D01*
X300561381Y-137998001D02*
X300561381Y-122258001D01*
%TO.C,C_comp2*%
X127321381Y-118278001D02*
X132821381Y-118278001D01*
X132821381Y-130778001D01*
X127321381Y-130778001D01*
X127321381Y-118278001D01*
%TO.C,R3*%
X260341381Y-149808001D02*
X263341381Y-149808001D01*
X263341381Y-159528001D01*
X260341381Y-159528001D01*
X260341381Y-149808001D01*
%TO.C,C_filter3*%
X130421381Y-111328001D02*
G75*
G02*
X119921381Y-111328001I-5250000J0D01*
G01*
X119921381Y-111328001D02*
G75*
G02*
X130421381Y-111328001I5250000J0D01*
G01*
%TO.C,C_op_5*%
X197150000Y-71650000D02*
X200150000Y-71650000D01*
X200150000Y-78750000D01*
X197150000Y-78750000D01*
X197150000Y-71650000D01*
%TO.C,U2*%
X275491381Y-145828001D02*
X281661381Y-145828001D01*
X275491381Y-164328001D02*
X275491381Y-145828001D01*
X281661381Y-140878001D02*
X281661381Y-145828001D01*
X281661381Y-164328001D02*
X275491381Y-164328001D01*
X281661381Y-164328001D02*
X281661381Y-169278001D01*
X281661381Y-169278001D02*
X330421381Y-169278001D01*
X330421381Y-140878001D02*
X281661381Y-140878001D01*
X330421381Y-150768001D02*
X330421381Y-140878001D01*
X330421381Y-159398001D02*
X331291381Y-159398001D01*
X330421381Y-169278001D02*
X330421381Y-159398001D01*
X331291381Y-150768001D02*
X330421381Y-150768001D01*
X331291381Y-159398001D02*
X331291381Y-150768001D01*
%TO.C,R_vcc1*%
X196751381Y-146388001D02*
X200851381Y-146388001D01*
X200851381Y-161988001D01*
X196751381Y-161988001D01*
X196751381Y-146388001D01*
%TO.C,C_bp_1*%
X140401381Y-92438001D02*
G75*
G02*
X131901381Y-92438001I-4250000J0D01*
G01*
X131901381Y-92438001D02*
G75*
G02*
X140401381Y-92438001I4250000J0D01*
G01*
%TO.C,C_bs1*%
X203200000Y-73050000D02*
X210300000Y-73050000D01*
X210300000Y-76050000D01*
X203200000Y-76050000D01*
X203200000Y-73050000D01*
%TO.C,R7*%
X255341381Y-149768001D02*
X258341381Y-149768001D01*
X258341381Y-159488001D01*
X255341381Y-159488001D01*
X255341381Y-149768001D01*
%TO.C,R1*%
X293641381Y-171058001D02*
X296641381Y-171058001D01*
X296641381Y-180778001D01*
X293641381Y-180778001D01*
X293641381Y-171058001D01*
%TO.C,R_startUp1*%
X176051381Y-132018001D02*
X179751381Y-132018001D01*
X179751381Y-154438001D01*
X176051381Y-154438001D01*
X176051381Y-132018001D01*
%TO.C,R11*%
X252391381Y-136203001D02*
X255391381Y-136203001D01*
X255391381Y-141293001D01*
X252391381Y-141293001D01*
X252391381Y-136203001D01*
%TO.C,C_decoup_12V1*%
X338791381Y-99878001D02*
G75*
G02*
X333291381Y-99878001I-2750000J0D01*
G01*
X333291381Y-99878001D02*
G75*
G02*
X338791381Y-99878001I2750000J0D01*
G01*
%TO.C,D_fastSwitchig_out2*%
X187691381Y-139138001D02*
X200751381Y-139138001D01*
X200751381Y-143238001D01*
X187691381Y-143238001D01*
X187691381Y-139138001D01*
%TO.C,X4*%
X228498619Y-54659499D02*
X237358619Y-54659499D01*
X237358619Y-64159499D01*
X228498619Y-64159499D01*
X228498619Y-54659499D01*
%TO.C,C_decoup_12V2*%
X260586269Y-117578001D02*
G75*
G02*
X255086269Y-117578001I-2750000J0D01*
G01*
X255086269Y-117578001D02*
G75*
G02*
X260586269Y-117578001I2750000J0D01*
G01*
%TO.C,C_bypass1*%
X133871381Y-115028001D02*
X140971381Y-115028001D01*
X140971381Y-118028001D01*
X133871381Y-118028001D01*
X133871381Y-115028001D01*
%TO.C,U5*%
X143036381Y-106883001D02*
X152606381Y-106883001D01*
X143036381Y-116973001D02*
X143036381Y-106883001D01*
X143036381Y-116973001D02*
X152606381Y-116973001D01*
X152606381Y-116973001D02*
X152606381Y-106883001D01*
%TO.C,R_sense1*%
X158151381Y-124938001D02*
X173751381Y-124938001D01*
X173751381Y-129038001D01*
X158151381Y-129038001D01*
X158151381Y-124938001D01*
%TO.C,X3*%
X331141381Y-117928001D02*
X340641381Y-117928001D01*
X340641381Y-126788001D01*
X331141381Y-126788001D01*
X331141381Y-117928001D01*
%TO.C,J2*%
X271476381Y-43363001D02*
X271476381Y-50893001D01*
X271476381Y-50893001D02*
X279006381Y-50893001D01*
X279006381Y-43363001D02*
X271476381Y-43363001D01*
X279006381Y-50893001D02*
X279006381Y-43363001D01*
%TO.C,R12*%
X243741381Y-136303001D02*
X246741381Y-136303001D01*
X246741381Y-141393001D01*
X243741381Y-141393001D01*
X243741381Y-136303001D01*
D11*
%TO.C,T1*%
X208151381Y-137088001D02*
X181551381Y-137088001D01*
X181551381Y-114288001D01*
X208151381Y-114288001D01*
X208151381Y-137088001D01*
G36*
X208151381Y-137088001D02*
G01*
X181551381Y-137088001D01*
X181551381Y-114288001D01*
X208151381Y-114288001D01*
X208151381Y-137088001D01*
G37*
%TO.C,Q1*%
D10*
X174651381Y-114248001D02*
X179551381Y-114248001D01*
X179551381Y-124748001D01*
X174651381Y-124748001D01*
X174651381Y-114248001D01*
%TO.C,L1*%
X195575000Y-52450000D02*
X200575000Y-52450000D01*
X200575000Y-70200000D01*
X195575000Y-70200000D01*
X195575000Y-52450000D01*
%TO.C,R9*%
X210050000Y-48550000D02*
X219770000Y-48550000D01*
X219770000Y-51550000D01*
X210050000Y-51550000D01*
X210050000Y-48550000D01*
%TO.C,C_Y_2*%
X176770000Y-44090000D02*
X184470000Y-44090000D01*
X184470000Y-47090000D01*
X176770000Y-47090000D01*
X176770000Y-44090000D01*
%TO.C,C3*%
X228250000Y-110300000D02*
G75*
G02*
X217750000Y-110300000I-5250000J0D01*
G01*
X217750000Y-110300000D02*
G75*
G02*
X228250000Y-110300000I5250000J0D01*
G01*
%TO.C,C_filter1*%
X208500000Y-51000000D02*
G75*
G02*
X203000000Y-51000000I-2750000J0D01*
G01*
X203000000Y-51000000D02*
G75*
G02*
X208500000Y-51000000I2750000J0D01*
G01*
%TO.C,C_decoup_3V2*%
X268341381Y-179978001D02*
G75*
G02*
X262841381Y-179978001I-2750000J0D01*
G01*
X262841381Y-179978001D02*
G75*
G02*
X268341381Y-179978001I2750000J0D01*
G01*
%TO.C,J6*%
X249066381Y-164028001D02*
X255316381Y-164028001D01*
X249066381Y-176928001D02*
X249066381Y-164028001D01*
X255316381Y-164028001D02*
X255316381Y-176928001D01*
X255316381Y-176928001D02*
X249066381Y-176928001D01*
%TO.C,R_dac1_pup_sda1*%
X260191381Y-165928001D02*
X263191381Y-165928001D01*
X263191381Y-175648001D01*
X260191381Y-175648001D01*
X260191381Y-165928001D01*
%TO.C,D_snub1*%
X160550000Y-88950000D02*
X166250000Y-88950000D01*
X166250000Y-107890000D01*
X160550000Y-107890000D01*
X160550000Y-88950000D01*
%TO.C,C_in2*%
X267591381Y-116678001D02*
X278091381Y-116678001D01*
X278091381Y-119678001D01*
X267591381Y-119678001D01*
X267591381Y-116678001D01*
%TO.C,R10*%
X211400000Y-59800000D02*
X221120000Y-59800000D01*
X221120000Y-62800000D01*
X211400000Y-62800000D01*
X211400000Y-59800000D01*
%TO.C,IC2*%
D11*
X288571381Y-56288001D02*
X330571381Y-56288001D01*
X288571381Y-113288001D02*
X288571381Y-56288001D01*
X330571381Y-56288001D02*
X330571381Y-113288001D01*
X330571381Y-113288001D02*
X288571381Y-113288001D01*
%TO.C,R_T1*%
D10*
X142781381Y-99238001D02*
X154351381Y-99238001D01*
X154351381Y-104238001D01*
X142781381Y-104238001D01*
X142781381Y-99238001D01*
%TO.C,C_vcc1*%
X141921381Y-107428001D02*
G75*
G02*
X131421381Y-107428001I-5250000J0D01*
G01*
X131421381Y-107428001D02*
G75*
G02*
X141921381Y-107428001I5250000J0D01*
G01*
%TO.C,J4*%
X242366381Y-129378001D02*
X242366381Y-135628001D01*
X242366381Y-135628001D02*
X250266381Y-135628001D01*
X250266381Y-129378001D02*
X242366381Y-129378001D01*
X250266381Y-135628001D02*
X250266381Y-129378001D01*
%TO.C,R_gate1*%
X163591381Y-131588001D02*
X173311381Y-131588001D01*
X173311381Y-134588001D01*
X163591381Y-134588001D01*
X163591381Y-131588001D01*
%TO.C,C_out1*%
X228633619Y-68059499D02*
X239133619Y-68059499D01*
X239133619Y-71059499D01*
X228633619Y-71059499D01*
X228633619Y-68059499D01*
%TO.C,X1*%
X264031381Y-122128001D02*
X272891381Y-122128001D01*
X272891381Y-131628001D01*
X264031381Y-131628001D01*
X264031381Y-122128001D01*
%TO.C,R2*%
X280271381Y-175928001D02*
X289991381Y-175928001D01*
X289991381Y-178928001D01*
X280271381Y-178928001D01*
X280271381Y-175928001D01*
%TO.C,R_startUp2*%
X182651381Y-139768001D02*
X186351381Y-139768001D01*
X186351381Y-162188001D01*
X182651381Y-162188001D01*
X182651381Y-139768001D01*
%TO.C,C_snub1*%
X176050000Y-84650000D02*
X179050000Y-84650000D01*
X179050000Y-92350000D01*
X176050000Y-92350000D01*
X176050000Y-84650000D01*
%TO.C,C_in3*%
X331641381Y-91828001D02*
X342141381Y-91828001D01*
X342141381Y-94828001D01*
X331641381Y-94828001D01*
X331641381Y-91828001D01*
%TO.C,C_comp1*%
X195000000Y-46100000D02*
X202100000Y-46100000D01*
X202100000Y-49100000D01*
X195000000Y-49100000D01*
X195000000Y-46100000D01*
%TO.C,TH1*%
X165190000Y-68890000D02*
X172820000Y-68890000D01*
X172820000Y-71890000D01*
X165190000Y-71890000D01*
X165190000Y-68890000D01*
%TO.C,R8*%
X270741381Y-149458001D02*
X273741381Y-149458001D01*
X273741381Y-159178001D01*
X270741381Y-159178001D01*
X270741381Y-149458001D01*
%TO.C,R_up1*%
X217250000Y-90500000D02*
X220250000Y-90500000D01*
X220250000Y-100220000D01*
X217250000Y-100220000D01*
X217250000Y-90500000D01*
%TO.C,C_filter2*%
X187390000Y-62590000D02*
G75*
G02*
X176890000Y-62590000I-5250000J0D01*
G01*
X176890000Y-62590000D02*
G75*
G02*
X187390000Y-62590000I5250000J0D01*
G01*
%TO.C,C_Y_1*%
X176820000Y-50740000D02*
X184520000Y-50740000D01*
X184520000Y-53740000D01*
X176820000Y-53740000D01*
X176820000Y-50740000D01*
%TO.C,R_Fb1*%
X156551381Y-107408001D02*
X158651381Y-107408001D01*
X158651381Y-114388001D01*
X156551381Y-114388001D01*
X156551381Y-107408001D01*
%TO.C,R_snub1*%
X169100000Y-81600000D02*
X173200000Y-81600000D01*
X173200000Y-109900000D01*
X169100000Y-109900000D01*
X169100000Y-81600000D01*
%TD*%
M02*
