M48
; DRILL file KiCad 10.0.1 date 2026-05-19T11:34:04
; FORMAT={-:-/ absolute / metric / decimal}
; #@! TF.CreationDate,2026-05-19T11:34:04+05:30
; #@! TF.GenerationSoftware,Kicad,Pcbnew,10.0.1
; #@! TF.FileFunction,MixedPlating,1,2
FMAT,2
METRIC
; #@! TA.AperFunction,Plated,PTH,ViaDrill
T1C0.305
; #@! TA.AperFunction,Plated,PTH,ComponentDrill
T2C0.700
; #@! TA.AperFunction,Plated,PTH,ComponentDrill
T3C0.780
; #@! TA.AperFunction,Plated,PTH,ComponentDrill
T4C0.800
; #@! TA.AperFunction,Plated,PTH,ComponentDrill
T5C1.000
; #@! TA.AperFunction,Plated,PTH,ComponentDrill
T6C1.016
; #@! TA.AperFunction,Plated,PTH,ComponentDrill
T7C1.020
; #@! TA.AperFunction,Plated,PTH,ComponentDrill
T8C1.050
; #@! TA.AperFunction,Plated,PTH,ComponentDrill
T9C1.100
; #@! TA.AperFunction,Plated,PTH,ComponentDrill
T10C1.110
; #@! TA.AperFunction,Plated,PTH,ComponentDrill
T11C1.200
; #@! TA.AperFunction,Plated,PTH,ComponentDrill
T12C1.300
; #@! TA.AperFunction,Plated,PTH,ComponentDrill
T13C1.320
; #@! TA.AperFunction,Plated,PTH,ComponentDrill
T14C1.400
; #@! TA.AperFunction,Plated,PTH,ComponentDrill
T15C1.600
; #@! TA.AperFunction,Plated,PTH,ComponentDrill
T16C1.700
; #@! TA.AperFunction,NonPlated,NPTH,ComponentDrill
T17C3.302
%
G90
G05
T1
X123.15Y-84.7
X123.2Y-144.05
X123.25Y-92.45
X123.25Y-124.05
X123.3Y-133.8
X123.3Y-154.95
X123.35Y-101.9
X131.95Y-84.8
X137.1Y-145.15
X137.1Y-155.2
X140.7Y-84.8
X142.93Y-63.49
X145.28Y-46.24
X145.43Y-75.79
X145.48Y-55.04
X148.8Y-155.3
X149.25Y-84.9
X150.75Y-42.4
X154.23Y-75.89
X157.2Y-42.6
X157.5Y-85.0
X161.3Y-155.4
X162.98Y-75.89
X163.4Y-43.2
X171.53Y-75.99
X175.1Y-42.9
X179.78Y-76.09
X182.05Y-96.5
X182.25Y-84.4
X187.33Y-46.84
X187.63Y-68.89
X187.73Y-55.34
X188.75Y-90.85
X195.3Y-84.75
X207.8Y-42.9
X209.2Y-84.55
X218.25Y-134.85
X220.95Y-43.0
X221.35Y-54.15
X227.1Y-84.55
X232.75Y-134.85
X241.35Y-41.25
X241.4Y-60.45
X241.45Y-50.9
X241.45Y-78.7
X241.5Y-70.1
X241.55Y-88.35
X241.55Y-98.15
X241.65Y-107.8
X241.7Y-120.8
X325.65Y-191.8
X345.45Y-133.3
X345.55Y-109.25
X346.0Y-151.45
X346.4Y-172.6
X346.4Y-191.6
T2
X157.601Y-108.358
X157.601Y-113.438
T3
X143.851Y-108.118
X143.851Y-110.658
X143.851Y-113.198
X143.851Y-115.738
X151.791Y-108.118
X151.791Y-110.658
X151.791Y-113.198
X151.791Y-115.738
T4
X134.401Y-92.438
X134.921Y-116.528
X137.901Y-92.438
X138.201Y-121.578
X139.921Y-116.528
X144.951Y-92.288
X147.59Y-69.29
X149.79Y-61.79
X149.951Y-92.288
X151.381Y-139.888
X153.441Y-121.578
X164.641Y-133.088
X166.69Y-70.39
X171.701Y-139.888
X171.77Y-70.39
X172.261Y-133.088
X177.55Y-86.0
X177.55Y-91.0
X177.901Y-133.068
X177.901Y-153.388
X178.12Y-45.59
X178.17Y-52.24
X183.12Y-45.59
X183.17Y-52.24
X184.501Y-140.818
X184.501Y-161.138
X187.23Y-101.21
X187.23Y-103.75
X194.85Y-101.21
X194.85Y-103.75
X196.05Y-47.6
X198.65Y-72.7
X198.65Y-77.7
X199.25Y-95.85
X201.05Y-47.6
X204.25Y-74.55
X204.5Y-51.0
X207.0Y-51.0
X209.25Y-74.55
X211.1Y-50.05
X211.95Y-95.85
X212.45Y-61.3
X213.45Y-101.1
X213.45Y-111.26
X218.72Y-50.05
X218.75Y-91.55
X218.75Y-99.17
X220.07Y-61.3
X226.434Y-71.709
X226.434Y-76.709
X231.384Y-69.559
X236.384Y-69.559
X245.241Y-137.803
X245.241Y-140.343
X253.891Y-137.703
X253.891Y-140.243
X256.836Y-117.578
X256.841Y-150.818
X256.841Y-158.438
X258.836Y-117.578
X261.691Y-166.978
X261.691Y-174.598
X261.841Y-150.858
X261.841Y-158.478
X264.591Y-179.978
X266.591Y-179.978
X266.741Y-166.898
X266.741Y-174.518
X267.391Y-150.358
X267.391Y-157.978
X270.341Y-118.178
X272.241Y-150.508
X272.241Y-158.128
X275.341Y-118.178
X281.321Y-172.028
X281.321Y-177.428
X288.941Y-172.028
X288.941Y-177.428
X295.141Y-172.108
X295.141Y-179.728
X301.191Y-172.118
X301.191Y-179.738
X334.391Y-93.328
X335.041Y-99.878
X337.041Y-99.878
X339.391Y-93.328
T5
X125.171Y-107.578
X125.171Y-115.078
X130.071Y-119.528
X130.071Y-129.528
X132.921Y-107.428
X140.421Y-107.428
X158.44Y-59.14
X158.44Y-66.64
X166.79Y-59.46
X166.79Y-64.54
X171.87Y-59.46
X171.87Y-64.54
X182.14Y-58.84
X182.14Y-66.34
X198.075Y-53.7
X198.075Y-68.94
X219.25Y-110.3
X226.75Y-110.3
X252.716Y-166.728
X252.716Y-169.228
X252.716Y-171.728
X252.716Y-174.228
X294.891Y-189.303
X297.391Y-189.303
X299.891Y-189.303
X302.391Y-189.303
X304.891Y-189.303
X329.241Y-135.453
X331.741Y-135.453
X334.241Y-135.453
X336.741Y-135.453
X339.241Y-135.453
T6
X286.341Y-136.478
X288.881Y-136.478
X291.421Y-136.478
X293.961Y-136.478
X296.501Y-136.478
X299.041Y-136.478
X303.131Y-136.478
X305.671Y-136.478
X308.211Y-136.478
X310.751Y-136.478
X313.291Y-136.478
X315.831Y-136.478
T7
X283.191Y-142.378
X283.191Y-167.778
X285.731Y-142.378
X285.731Y-167.778
X288.271Y-142.378
X288.271Y-167.778
X290.811Y-142.378
X290.811Y-167.778
X293.351Y-142.378
X293.351Y-167.778
X295.891Y-142.378
X295.891Y-167.778
X298.431Y-142.378
X298.431Y-167.778
X300.971Y-142.378
X300.971Y-167.778
X303.511Y-142.378
X303.511Y-167.778
X306.051Y-142.378
X306.051Y-167.778
X308.591Y-142.378
X308.591Y-167.778
X311.131Y-142.378
X311.131Y-167.778
X313.671Y-142.378
X313.671Y-167.778
X316.211Y-142.378
X316.211Y-167.778
X318.751Y-142.378
X318.751Y-167.778
X321.291Y-142.378
X321.291Y-167.778
X323.831Y-142.378
X323.831Y-167.778
X326.371Y-142.378
X326.371Y-167.778
X328.911Y-142.378
X328.911Y-167.778
T8
X245.066Y-131.978
X247.566Y-131.978
X253.641Y-133.078
X256.141Y-133.078
T9
X178.051Y-116.958
X178.051Y-119.498
X178.051Y-122.038
X204.1Y-67.65
X214.26Y-67.65
T10
X266.151Y-109.688
X268.691Y-69.078
X268.691Y-109.688
X271.231Y-109.688
X273.771Y-109.688
X276.311Y-109.688
X278.851Y-109.688
X281.391Y-109.688
X283.931Y-69.078
X283.931Y-109.688
X309.251Y-109.688
X311.791Y-69.078
X311.791Y-109.688
X314.331Y-109.688
X316.871Y-109.688
X319.411Y-109.688
X321.951Y-109.688
X324.491Y-109.688
X327.031Y-69.078
X327.031Y-109.688
T11
X144.231Y-101.738
X151.851Y-101.738
X159.601Y-126.988
X164.851Y-112.788
X164.851Y-120.408
X171.15Y-83.05
X171.15Y-108.45
X172.301Y-126.988
X189.141Y-141.188
X198.801Y-147.838
X198.801Y-160.538
X199.301Y-141.188
X212.99Y-121.0
X223.15Y-121.0
T12
X154.74Y-49.06
X162.36Y-49.06
X169.98Y-49.06
X272.701Y-44.588
X272.701Y-49.668
X275.241Y-47.128
X277.781Y-44.588
X277.781Y-49.668
X315.501Y-44.588
X315.501Y-49.668
X318.041Y-47.128
X320.581Y-44.588
X320.581Y-49.668
T13
X184.851Y-118.188
X184.851Y-120.688
X184.851Y-123.188
X184.851Y-128.188
X184.851Y-130.688
X184.851Y-133.188
X204.851Y-116.973
X204.851Y-119.463
X204.851Y-121.953
X204.851Y-124.443
X204.851Y-126.933
X204.851Y-129.423
X204.851Y-131.913
X204.851Y-134.403
T14
X138.151Y-130.888
X150.851Y-130.888
T15
X163.4Y-90.8
X163.4Y-106.04
T16
X230.859Y-46.959
X230.949Y-59.959
X234.819Y-46.959
X234.909Y-59.959
X266.481Y-127.428
X270.441Y-127.428
X274.691Y-186.228
X278.651Y-186.228
X336.441Y-120.378
X336.441Y-124.338
T17
X286.976Y-124.413
X298.406Y-124.413
X303.766Y-124.413
X315.196Y-124.413
M30
